<?xml version="1.0" standalone="no"?>
<!DOCTYPE svg PUBLIC "-//W3C//DTD SVG 20010904//EN"
 "http://www.w3.org/TR/2001/REC-SVG-20010904/DTD/svg10.dtd">
<svg version="1.0" xmlns="http://www.w3.org/2000/svg"
 width="2968.000000pt" height="2968.000000pt" viewBox="0 0 2968.000000 2968.000000"
 preserveAspectRatio="xMidYMid meet">
<metadata>
Created by potrace 1.14, written by Peter Selinger 2001-2017
</metadata>
<g transform="translate(0.000000,2968.000000) scale(0.100000,-0.100000)"
fill="#000000" stroke="none">
<path d="M13150 26507 c-3 -3 -75 -7 -160 -11 -85 -4 -169 -8 -185 -10 -17 -2
-70 -7 -120 -10 -49 -4 -101 -9 -115 -11 -14 -2 -61 -7 -105 -10 -44 -3 -87
-8 -95 -10 -8 -2 -42 -6 -75 -10 -423 -44 -1039 -168 -1575 -316 -1295 -359
-2397 -850 -3315 -1477 -113 -77 -361 -258 -381 -276 -6 -6 -26 -22 -44 -36
-33 -25 -205 -165 -226 -185 -7 -5 -38 -32 -70 -60 -108 -92 -168 -148 -349
-330 -251 -250 -441 -471 -622 -720 -69 -96 -106 -150 -218 -325 -238 -369
-490 -974 -559 -1340 -2 -14 -9 -45 -15 -70 -12 -52 -28 -153 -36 -225 -3 -27
-8 -61 -10 -75 -9 -48 -19 -236 -19 -355 -1 -301 38 -570 121 -835 204 -660
642 -1169 1272 -1481 149 -73 424 -176 546 -204 26 -6 138 -33 148 -36 1 0 13
-2 27 -5 14 -2 48 -9 75 -14 59 -11 93 -17 160 -26 28 -3 59 -8 69 -10 100
-19 566 -26 695 -11 36 4 87 10 115 13 91 10 345 64 470 100 103 30 174 56
431 157 17 7 33 17 37 22 4 6 8 7 8 3 0 -9 384 186 400 202 3 3 43 27 90 54
121 70 347 219 545 359 144 103 604 444 662 491 60 50 601 451 798 592 255
183 898 596 970 623 5 2 39 21 75 41 286 164 749 382 1070 502 52 20 131 50
175 66 205 77 771 241 960 278 11 2 31 6 45 9 14 3 36 8 50 10 14 3 57 12 95
20 39 8 80 16 92 19 11 2 43 8 70 12 26 3 57 8 68 11 88 17 120 23 162 28 26
4 55 8 63 10 8 2 40 7 70 10 30 4 57 8 60 10 3 2 34 6 70 10 36 4 73 9 82 10
9 2 48 7 85 10 37 4 75 9 84 10 9 2 52 6 95 10 43 4 86 9 94 10 8 2 62 6 120
10 58 4 121 8 140 10 107 11 380 18 630 18 329 0 506 -7 725 -28 28 -3 79 -7
115 -10 78 -6 156 -14 190 -20 14 -2 50 -7 80 -10 30 -4 66 -8 80 -10 14 -2
45 -7 70 -10 66 -9 111 -22 192 -56 77 -32 321 -153 398 -196 51 -30 272 -174
280 -183 3 -3 21 -17 40 -30 19 -14 78 -61 130 -105 849 -713 1392 -1861 1565
-3310 17 -144 22 -198 30 -330 3 -49 8 -121 11 -160 5 -82 5 -607 0 -680 -2
-27 -7 -99 -11 -160 -3 -60 -8 -119 -10 -130 -2 -11 -7 -47 -10 -80 -11 -103
-15 -137 -31 -235 -8 -52 -18 -108 -20 -125 -4 -27 -15 -91 -30 -172 -26 -145
-121 -573 -128 -580 -9 -9 -576 132 -925 229 -801 222 -1518 470 -2756 951
-717 279 -1075 402 -1825 627 -36 11 -90 26 -120 34 -30 8 -89 24 -130 35
-539 150 -1299 311 -1770 375 -19 2 -69 9 -110 15 -41 5 -96 13 -122 16 -125
14 -145 16 -168 20 -14 2 -61 7 -105 11 -44 3 -87 8 -96 9 -9 2 -65 6 -125 10
-60 4 -117 9 -127 11 -134 25 -1201 25 -1412 0 -16 -2 -70 -7 -120 -11 -49 -3
-101 -8 -115 -10 -14 -2 -52 -6 -85 -10 -98 -10 -148 -16 -175 -20 -14 -2 -45
-7 -70 -10 -37 -5 -243 -39 -365 -60 -494 -87 -1103 -271 -1625 -492 -310
-131 -777 -373 -1040 -537 -25 -16 -67 -43 -95 -60 -196 -122 -534 -354 -720
-494 -372 -280 -764 -634 -1008 -912 -56 -63 -104 -117 -107 -120 -33 -31
-250 -317 -343 -452 -247 -360 -528 -924 -638 -1282 -39 -128 -103 -366 -113
-423 -3 -15 -15 -68 -26 -118 -38 -170 -80 -446 -96 -630 -3 -38 -8 -83 -9
-100 -6 -50 -19 -384 -19 -485 0 -104 13 -440 18 -480 2 -14 7 -61 10 -105 4
-44 9 -93 11 -110 52 -389 84 -562 165 -881 60 -234 102 -370 200 -644 36
-100 111 -293 130 -335 22 -50 69 -156 95 -215 43 -96 200 -408 264 -524 70
-124 203 -349 211 -356 3 -3 19 -27 35 -55 100 -174 402 -592 617 -852 122
-148 141 -171 233 -272 28 -30 72 -80 99 -111 95 -106 502 -506 637 -625 596
-527 1128 -902 1859 -1309 145 -81 554 -282 753 -370 469 -208 952 -381 1442
-517 78 -21 496 -125 535 -133 14 -2 79 -16 145 -30 66 -14 134 -27 150 -30
17 -2 55 -9 85 -16 30 -6 67 -13 82 -15 48 -9 341 -54 388 -60 25 -3 61 -7 80
-10 116 -15 175 -22 265 -30 39 -4 84 -8 100 -11 17 -2 68 -6 115 -9 47 -4
105 -8 130 -10 237 -21 1052 -28 1310 -12 221 13 366 23 445 32 22 2 67 7 100
10 144 15 213 22 270 30 17 3 84 12 150 20 98 14 360 53 525 81 618 102 1403
302 2005 511 72 25 148 51 170 58 85 28 467 177 590 230 814 354 1412 682
2050 1123 224 155 614 452 745 566 20 17 58 50 85 73 28 23 59 50 71 60 12 10
50 43 85 73 243 209 711 673 909 900 30 35 62 70 71 79 32 32 247 290 360 431
423 532 785 1081 1133 1720 89 162 314 626 409 840 159 360 244 580 392 1005
49 142 181 589 210 713 3 9 15 60 28 112 26 102 55 225 61 256 2 10 11 49 20
87 9 37 18 81 21 97 3 17 12 62 20 100 8 38 17 84 20 102 3 18 14 80 25 138
10 58 21 123 24 145 4 22 8 51 11 65 2 14 7 43 10 65 3 22 10 67 15 100 14 95
20 141 35 268 3 23 7 58 10 77 2 19 7 58 9 85 8 78 16 166 21 215 3 25 7 74
10 110 3 36 7 90 9 120 3 30 8 102 11 160 3 58 8 130 10 160 24 340 24 1393 1
1516 -2 11 -7 56 -10 100 -4 43 -9 97 -11 119 -3 22 -10 81 -15 130 -16 141
-36 290 -46 345 -2 14 -7 43 -9 65 -5 38 -50 304 -60 355 -3 14 -11 59 -19
100 -51 267 -158 700 -250 1019 -132 454 -362 1082 -539 1471 -14 30 -48 107
-77 170 -312 691 -774 1485 -1248 2150 -356 497 -769 1001 -1157 1410 -197
207 -517 520 -675 660 -46 41 -93 84 -105 95 -11 12 -76 68 -145 125 -69 58
-127 107 -130 110 -18 21 -364 286 -491 377 -767 550 -1731 1021 -2839 1390
-568 189 -1271 369 -1785 458 -16 3 -41 7 -55 10 -120 22 -549 86 -675 100
-33 4 -71 8 -85 10 -14 2 -55 7 -92 10 -37 3 -75 7 -85 9 -10 2 -63 7 -118 11
-55 4 -107 9 -116 10 -9 2 -67 6 -130 10 -63 4 -130 9 -149 12 -43 6 -1094 16
-1100 10z m-3028 -12971 c62 -4 133 -8 158 -11 100 -9 156 -15 180 -20 14 -3
43 -8 65 -10 22 -3 94 -17 160 -30 66 -14 130 -27 142 -29 54 -11 313 -86 433
-127 281 -94 662 -266 942 -423 290 -163 521 -313 848 -550 153 -111 256 -188
580 -435 69 -52 301 -227 515 -388 215 -161 395 -296 400 -301 17 -13 435
-315 520 -375 149 -105 689 -463 805 -534 247 -151 522 -308 657 -375 35 -17
61 -34 58 -37 -4 -8 -221 -117 -370 -186 -566 -263 -1252 -491 -1920 -639
-268 -59 -593 -119 -755 -141 -25 -3 -70 -10 -100 -15 -30 -5 -82 -12 -115
-16 -33 -3 -62 -8 -65 -9 -3 -2 -42 -7 -85 -10 -44 -4 -82 -9 -85 -10 -3 -2
-42 -6 -85 -10 -44 -4 -91 -8 -105 -10 -14 -2 -54 -6 -90 -10 -36 -3 -90 -7
-120 -10 -553 -49 -1357 -61 -1960 -30 -215 11 -337 19 -480 30 -36 3 -92 7
-125 10 -33 2 -89 7 -125 10 -75 6 -440 43 -497 50 -21 3 -132 16 -248 30
-249 30 -304 42 -495 105 -352 117 -637 270 -875 470 -72 60 -201 191 -253
255 -31 39 -60 72 -63 75 -14 11 -140 211 -176 280 -104 198 -184 469 -210
710 -14 131 -7 425 12 521 3 13 8 41 10 62 9 64 44 204 76 306 86 264 182 453
366 721 103 150 362 413 534 542 312 235 667 400 1049 488 157 36 166 38 305
55 33 3 71 9 85 11 14 2 86 7 160 10 74 4 136 7 137 8 2 2 83 -1 205 -8z"/>
</g>
</svg>
